<?xml version="1.0" encoding="UTF-8" standalone="no"?>
<svg width="418px" height="344px" viewBox="0 0 418 344" version="1.1" xmlns="http://www.w3.org/2000/svg" xmlns:xlink="http://www.w3.org/1999/xlink">
    <!-- Generator: Sketch 39.1 (31720) - http://www.bohemiancoding.com/sketch -->
    <title>monkey colorful</title>
    <desc>Created with Sketch.</desc>
    <defs>
        <path d="M49.9016854,149.125436 C77.4616252,149.125436 99.8033708,126.782573 99.8033708,99.2212544 C99.8033708,71.6599361 77.4616252,49.3170732 49.9016854,49.3170732 C22.3417456,49.3170732 0,71.6599361 0,99.2212544 C0,126.782573 22.3417456,149.125436 49.9016854,149.125436 Z" id="path-1"></path>
        <mask id="mask-2" maskContentUnits="userSpaceOnUse" maskUnits="objectBoundingBox" x="0" y="0" width="99.8033708" height="99.8083624" fill="white">
            <use xlink:href="#path-1"></use>
        </mask>
        <path d="M368.098315,149.125436 C395.658254,149.125436 418,126.782573 418,99.2212544 C418,71.6599361 395.658254,49.3170732 368.098315,49.3170732 C340.538375,49.3170732 318.196629,71.6599361 318.196629,99.2212544 C318.196629,126.782573 340.538375,149.125436 368.098315,149.125436 Z" id="path-3"></path>
        <mask id="mask-4" maskContentUnits="userSpaceOnUse" maskUnits="objectBoundingBox" x="0" y="0" width="99.8033708" height="99.8083624" fill="white">
            <use xlink:href="#path-3"></use>
        </mask>
        <path d="M210.174163,307.48055 C305.562485,307.48055 382.889993,244.645287 382.889993,149.149178 C382.889993,95.5815527 360.244972,61.1593556 322.042835,36.0083972 C292.141236,16.3222241 252.055321,0 210.174163,0 C170.038697,0 139.893366,9.49046325 110.567584,27.6079826 C70.1959774,52.5496313 37.4583217,93.8338873 37.4583217,149.149178 C37.4583217,244.645287 114.785841,307.48055 210.174163,307.48055 Z" id="path-5"></path>
        <filter x="-50%" y="-50%" width="200%" height="200%" filterUnits="objectBoundingBox" id="filter-6">
            <feOffset dx="0" dy="2" in="SourceAlpha" result="shadowOffsetOuter1"></feOffset>
            <feGaussianBlur stdDeviation="2" in="shadowOffsetOuter1" result="shadowBlurOuter1"></feGaussianBlur>
            <feComposite in="shadowBlurOuter1" in2="SourceAlpha" operator="out" result="shadowBlurOuter1"></feComposite>
            <feColorMatrix values="0 0 0 0 0   0 0 0 0 0   0 0 0 0 0  0 0 0 0.5 0" type="matrix" in="shadowBlurOuter1"></feColorMatrix>
        </filter>
        <mask id="mask-7" maskContentUnits="userSpaceOnUse" maskUnits="objectBoundingBox" x="0" y="0" width="345.431671" height="307.48055" fill="white">
            <use xlink:href="#path-5"></use>
        </mask>
        <filter x="-50%" y="-50%" width="200%" height="200%" filterUnits="objectBoundingBox" id="filter-8">
            <feOffset dx="0" dy="2" in="SourceAlpha" result="shadowOffsetOuter1"></feOffset>
            <feGaussianBlur stdDeviation="2" in="shadowOffsetOuter1" result="shadowBlurOuter1"></feGaussianBlur>
            <feColorMatrix values="0 0 0 0 0   0 0 0 0 0   0 0 0 0 0  0 0 0 0.5 0" type="matrix" in="shadowBlurOuter1" result="shadowMatrixOuter1"></feColorMatrix>
            <feMerge>
                <feMergeNode in="shadowMatrixOuter1"></feMergeNode>
                <feMergeNode in="SourceGraphic"></feMergeNode>
            </feMerge>
        </filter>
        <radialGradient cx="50%" cy="83.9701254%" fx="50%" fy="83.9701254%" r="87.8967065%" id="radialGradient-9">
            <stop stop-color="#F4DCC6" offset="0%"></stop>
            <stop stop-color="#E2A15E" offset="100%"></stop>
        </radialGradient>
        <path d="M244.690912,100.240897 C246.571173,101.185247 248.389006,102.191724 250.14151,103.264367 C268.198184,114.316189 279.630617,131.814096 279.630617,163.216029 C279.630617,169.030196 274.417809,197.769825 243.101977,214.216863 C230.408897,220.883254 217.109884,227.956891 200.684541,232.196652 C176.220199,238.511464 148.922987,240.411342 139.450821,240.411342 C127.272824,240.411342 100.899952,237.722213 78.9424469,232.196652 C61.9901181,227.930633 49.6517046,221.983815 36.1614596,214.216863 C8.64020831,198.371619 0.57623481,167.836419 0.57623481,163.216029 C0.57623481,156.724004 -0.344237229,150.131889 0.57623481,144.845638 C3.73736106,126.69136 13.4751228,115.851573 25.2431301,107.08327 C28.1032855,104.952178 31.1788003,103.033211 34.4538301,101.305706 C29.7944255,91.9879598 27.1797753,81.5183704 27.1797753,70.4529617 C27.1797753,31.5428654 59.5095953,0 99.3904494,0 C114.150638,0 127.87649,4.32071901 139.311798,11.7365247 C150.747105,4.32071901 164.472958,0 179.233146,0 C219.114,0 251.44382,31.5428654 251.44382,70.4529617 C251.44382,81.0988156 249.023685,91.1931757 244.690912,100.240897 Z" id="path-10"></path>
        <mask id="mask-11" maskContentUnits="userSpaceOnUse" maskUnits="objectBoundingBox" x="0" y="0" width="279.463481" height="240.411342" fill="white">
            <use xlink:href="#path-10"></use>
        </mask>
    </defs>
    <g id="Page-1" stroke="none" stroke-width="1" fill="none" fill-rule="evenodd">
        <g id="macaca-logos" transform="translate(-48.000000, -93.000000)">
            <g id="monkey-colorful" transform="translate(48.000000, 94.000000)">
                <g id="leaf" transform="translate(178.471910, 0.000000)" stroke="#C0FF9B" stroke-width="2" fill="#3D280A">
                    <path d="M35.5481579,27.7747253 C35.5518545,27.7603543 35.5559333,27.74458 35.5603961,27.7274287 C32.781967,26.3499059 23.3274872,21.70276 19.3941483,20.2839807 C12.9399098,17.9558975 0.704691269,15.2247781 0.704691269,15.2247781 C0.704691269,15.2247781 5.08401404,13.8572066 11.9973161,13.4020293 C16.3284636,13.1168631 25.0417353,14.9097006 29.2531511,17.0383501 C30.1885052,17.5111225 31.4707203,18.1367387 32.632076,19.0851916 C33.8705608,20.0966341 34.9764266,21.4507656 35.5380859,22.5652168 C35.8609507,23.2058491 36.1960664,24.2126342 36.3204169,24.9493292 C36.330302,25.0078916 36.339547,25.0660864 36.3481838,25.1238724 C36.8481125,23.6379199 37.5839031,21.6869908 38.5803787,19.6164184 C39.4741724,17.7592079 40.9469548,15.3120854 42.0508958,13.8153317 C43.971324,11.2115622 46.9489628,8.28104528 49.8006109,6.31936436 C52.474667,4.47985094 55.0238285,3.55080174 56.8990803,2.83021736 C65.3423692,-0.414201324 82.2213254,-0.300990777 88.5381115,2.83021732 C93.5294785,5.30441998 97.2740571,8.02103001 99.2755871,10.1337036 C101.317221,12.2887078 102.068082,13.8153316 102.068082,13.8153316 C102.068082,13.8153316 91.752383,12.2814218 81.6929749,12.3258316 C76.9448381,12.3467934 72.6573343,13.003978 68.7945997,13.8153317 C65.204079,14.5695078 61.460492,15.5025322 55.2722386,18.2279617 C48.0413284,21.4125979 39.234273,25.9470009 36.426422,27.4084801 C36.4154361,27.549533 36.4027363,27.6725698 36.390535,27.7747253 L36.4057303,27.7747253 L36.4057303,34.6832066 L35.4057303,34.6832066 L35.4057303,27.7747253 L35.5481579,27.7747253 Z" id="right"></path>
                </g>
                <g id="face" transform="translate(0.000000, 29.355401)">
                    <use id="left-ear" stroke="#3D280A" mask="url(#mask-2)" stroke-width="10" fill="#9E5602" xlink:href="#path-1"></use>
                    <use id="right-ear" stroke="#3D280A" mask="url(#mask-4)" stroke-width="10" fill="#9E5602" xlink:href="#path-3"></use>
                    <g id="face-outer">
                        <use fill="black" fill-opacity="1" filter="url(#filter-6)" xlink:href="#path-5"></use>
                        <use stroke="#3D280A" mask="url(#mask-7)" stroke-width="16" fill="#9E5602" fill-rule="evenodd" xlink:href="#path-5"></use>
                    </g>
                    <g id="mouth-+-left-eye-+-right-eye" transform="translate(69.101124, 43.445993)">
                        <g id="mouth-+-left-eye-+-left-c" filter="url(#filter-8)" stroke="#EBC090" stroke-width="12" fill="url(#radialGradient-9)">
                            <use id="mouth" mask="url(#mask-11)" xlink:href="#path-10"></use>
                        </g>
                        <ellipse id="left-c" stroke="#979797" fill="#000000" cx="84.7134831" cy="69.2787456" rx="14.0898876" ry="14.0905923"></ellipse>
                        <ellipse id="right-c" stroke="#979797" fill="#000000" cx="182.168539" cy="69.2787456" rx="14.0898876" ry="14.0905923"></ellipse>
                    </g>
                </g>
            </g>
        </g>
    </g>
</svg>